<svg width="464" height="273" viewBox="0 0 464 273" fill="none" xmlns="http://www.w3.org/2000/svg">
<path d="M225.242 272.153L97.7416 199.653V22.1526L368.742 0.152588L463.742 42.1526V168.653L225.242 272.153Z" fill="#C82E2E"/>
<path d="M97.7416 22.1526L225.242 77.1526M97.7416 22.1526V199.653L225.242 272.153M97.7416 22.1526L368.742 0.152588L463.742 42.1526M225.242 77.1526V272.153M225.242 77.1526L463.742 42.1526M225.242 272.153L463.742 168.653V42.1526" stroke="black" stroke-opacity="0.1" stroke-width="0.3"/>
<path d="M463.742 42.1526L225.242 77.1526V102.153L463.742 59.1526V42.1526Z" fill="#C8C7C7"/>
<path d="M463.742 77.6526L225.242 126.265V154.265L463.742 98.6526V77.6526Z" fill="#C8C7C7"/>
<path d="M463.742 117.153L223.242 181.765V213.153L463.742 137.653V117.153Z" fill="#C8C7C7"/>
<path d="M463.742 152.653L225.242 242.653V272.153L463.742 168.653V152.653Z" fill="#C8C7C7"/>
<path d="M368.742 0.152588L97.7416 22.1526L110.742 27.6526L375.742 3.15259L368.742 0.152588Z" fill="#D9D9D9"/>
<path d="M386.242 8.15259L120.742 32.1526L137.742 39.6526L394.742 11.6526L386.242 8.15259Z" fill="#D9D9D9"/>
<path d="M452.742 37.1526L207.242 70.1526L224.242 77.6526L463.742 42.1526L452.742 37.1526Z" fill="#D9D9D9"/>
<path d="M431.242 27.6526L178.242 57.1526L195.242 64.6526L442.242 32.6526L431.242 27.6526Z" fill="#D9D9D9"/>
<path d="M409.742 18.1526L147.242 44.1526L164.242 51.6526L419.742 22.6526L409.742 18.1526Z" fill="#D9D9D9"/>
<path d="M225.242 77.6526L97.7416 22.6526V199.653L225.242 272.153V77.6526Z" fill="#AA7351"/>
<path d="M225.242 169.653L97.7416 199.153V22.6526L225.242 77.1526V169.653Z" fill="#724B34"/>
<path d="M132.742 242.653C117.142 230.653 112.242 252.653 121.742 254.653C114.76 261.238 122.242 267.653 130.742 265.153C132.242 270.153 141.348 270.604 142.242 262.153C152.242 270.153 153.242 254.653 150.242 254.653C160.242 253.653 159.06 241.949 150.242 243.653C145.742 236.153 136.742 235.653 132.742 242.653Z" fill="#FFED86"/>
<path d="M128.242 254.653C132.17 252.773 134.242 251.153 133.742 248.153C136.242 252.653 137.365 252.905 143.242 252.653C139.007 253.175 137.067 253.795 137.242 257.653C135.832 253.778 134.13 252.776 128.242 254.653Z" fill="#6C5736"/>
<path d="M133.242 247.653C133.253 247.82 133.256 247.994 133.25 248.157C133.192 249.663 132.634 250.998 131.736 252.022C130.835 253.055 129.591 253.811 128.208 254.445C128.058 254.515 127.902 254.584 127.742 254.653C127.916 254.649 128.088 254.641 128.255 254.629C129.784 254.516 131.392 253.936 132.49 252.679C133.597 251.442 133.943 249.608 133.438 248.129C133.383 247.968 133.317 247.802 133.242 247.653Z" fill="#C7B583"/>
<path d="M133.742 247.653C133.905 248.164 134.09 248.668 134.314 249.158C134.982 250.723 136.301 252.19 138.058 252.686C139.782 253.213 141.549 253.171 143.267 253.118L143.204 252.188C141.801 252.293 140.38 252.412 138.977 252.986C138.137 253.323 137.274 254.04 136.971 254.991C136.656 255.924 136.711 256.832 136.793 257.691L137.664 257.497C137.1 256.051 136.219 254.357 134.519 253.824C132.872 253.327 131.271 253.745 129.77 254.156C129.257 254.306 128.75 254.473 128.242 254.653C128.768 254.537 129.29 254.432 129.813 254.342C131.334 254.093 132.953 253.879 134.302 254.417C135.655 254.952 136.326 256.388 136.819 257.808L137.69 257.614C137.542 255.969 137.862 254.43 139.372 253.904C140.54 253.42 141.922 253.258 143.279 253.117L143.216 252.187C139.929 252.49 136.099 252.373 134.482 249.07C134.21 248.615 133.967 248.14 133.742 247.653Z" fill="#C7B583"/>
<path d="M118.242 249.653C118.265 249.303 118.301 248.984 118.346 248.643C118.714 245.653 120.237 243.131 122.641 242.252C125.032 241.317 127.982 241.756 130.795 242.784C131.114 242.901 131.42 243.019 131.742 243.153C131.494 242.908 131.252 242.681 130.987 242.456C128.697 240.485 125.24 239.122 121.91 240.39C118.469 241.632 117.172 245.74 117.967 248.66C118.042 249.006 118.133 249.319 118.242 249.653Z" fill="#FFF9D8"/>
<path d="M135.242 249.153C135.198 248.862 135.17 248.591 135.146 248.306C134.932 245.782 135.626 243.554 137.046 241.936C138.458 240.311 140.558 239.214 143.055 238.889C143.335 238.853 143.612 238.826 143.902 238.809C143.635 238.694 143.369 238.595 143.088 238.51C140.603 237.713 137.422 238.414 135.536 240.626C133.575 242.798 133.462 246.173 134.782 248.416C134.924 248.678 135.074 248.911 135.242 249.153Z" fill="#FFF9D8"/>
<path d="M120.848 263.181C120.848 263.181 120.848 263.181 120.848 263.181C120.694 262.913 120.577 262.678 120.457 262.403C119.082 259.806 121.602 257.975 123.891 257.219C126.255 256.354 128.792 255.833 131.348 255.346C131.63 255.294 131.921 255.241 132.203 255.191C132.203 255.191 132.203 255.191 132.203 255.191C131.917 255.175 131.62 255.164 131.333 255.157C128.72 255.108 126.065 255.362 123.54 256.282C122.298 256.76 121.021 257.396 120.151 258.565C119.206 259.748 119.494 261.481 120.291 262.496C120.469 262.75 120.64 262.953 120.848 263.181Z" fill="#FFF9D8"/>
<path d="M140.242 259.153C140.172 259.01 140.111 258.878 140.043 258.738C139.488 257.552 138.754 256.134 139.456 255.536C140.201 254.808 141.59 254.371 142.819 253.832C142.955 253.773 143.096 253.714 143.242 253.653C143.084 253.648 142.931 253.646 142.781 253.645C141.416 253.697 139.98 253.71 138.723 254.856C138.427 255.161 138.217 255.636 138.225 256.082C138.226 256.526 138.371 256.908 138.544 257.236C138.899 257.889 139.379 258.389 139.891 258.852C140.007 258.957 140.12 259.051 140.242 259.153Z" fill="#FFF9D8"/>
<path d="M149.742 244.653C149.593 244.66 149.455 244.669 149.308 244.684C148.089 244.796 146.438 245.324 146.045 246.936C145.735 248.438 146.359 249.685 147.007 250.788C147.082 250.91 147.16 251.029 147.242 251.153C147.222 251.006 147.205 250.866 147.186 250.724C147.032 249.458 146.782 248.184 147.016 247.176C147.213 246.189 148.256 245.499 149.366 244.865C149.493 244.793 149.611 244.725 149.742 244.653Z" fill="#FFF9D8"/>
<path d="M142.242 262.153C142.145 262.402 142.045 262.637 141.936 262.878C140.977 264.992 139.439 266.883 137.391 267.512C135.345 268.177 133.079 267.207 131.327 265.68C131.126 265.507 130.938 265.34 130.742 265.153C130.887 265.382 131.028 265.593 131.189 265.809C132.52 267.706 135.104 269.296 137.683 268.468C140.218 267.675 141.669 265.233 142.117 262.936C142.17 262.672 142.209 262.418 142.242 262.153Z" fill="black" fill-opacity="0.26"/>
<path d="M150.742 255.153C150.882 255.382 150.98 255.646 151.045 255.901C151.503 258.252 150.83 260.827 149.344 262.441C147.819 264.138 145.127 263.621 142.978 262.53C142.74 262.416 142.494 262.29 142.242 262.153C142.456 262.345 142.668 262.524 142.877 262.691C144.653 264.217 147.986 265.365 150.058 263.142C151.907 261.111 152.231 258.163 151.222 255.833C151.097 255.587 150.935 255.34 150.742 255.153Z" fill="black" fill-opacity="0.26"/>
<path d="M44.533 244.393C57.7752 258.954 66.474 238.161 57.4748 234.519C65.5076 229.266 59.2727 221.634 50.4652 222.597C49.8694 217.411 40.9849 215.363 38.6166 223.525C30.1822 213.888 26.4674 228.97 29.4205 229.498C19.4007 228.721 18.5022 240.45 27.4828 240.326C30.5913 248.502 39.3625 250.579 44.533 244.393Z" fill="#FFED86"/>
<path d="M51.0765 233.374C46.8785 234.531 44.5538 235.762 44.5175 238.803C42.8493 233.933 41.7877 233.487 35.9587 232.7C40.2189 232.932 42.2383 232.663 42.7457 228.835C43.4506 232.897 44.9491 234.184 51.0765 233.374Z" fill="#6C5736"/>
<path d="M44.9216 239.383C44.9401 239.217 44.9677 239.045 45.0022 238.885C45.3247 237.413 46.1087 236.197 47.1734 235.348C48.2422 234.489 49.6002 233.965 51.0735 233.584C51.2332 233.542 51.3982 233.501 51.5687 233.462C51.396 233.434 51.2262 233.412 51.0593 233.394C49.5346 233.236 47.8496 233.524 46.5474 234.568C45.2395 235.591 44.5761 237.335 44.8123 238.88C44.8375 239.048 44.8737 239.223 44.9216 239.383Z" fill="#C7B583"/>
<path d="M44.4294 239.295C44.359 238.763 44.265 238.235 44.1314 237.713C43.7488 236.055 42.7093 234.378 41.0676 233.58C39.4627 232.758 37.7161 232.488 36.0158 232.237L35.9139 233.164C37.3132 233.308 38.7329 233.441 40.2152 233.124C41.1012 232.939 42.0776 232.386 42.5435 231.503C43.018 230.64 43.1234 229.737 43.1941 228.877L42.3022 228.914C42.6027 230.437 43.1715 232.259 44.7515 233.083C46.2849 233.863 47.9348 233.734 49.4845 233.593C50.0158 233.536 50.5443 233.461 51.0765 233.374C50.5376 233.394 50.0052 233.406 49.4749 233.403C47.934 233.38 46.3026 233.305 45.0696 232.538C43.8322 231.773 43.4245 230.241 43.1891 228.757L42.2972 228.794C42.153 230.439 41.5675 231.898 39.9887 232.15C38.7536 232.42 37.3642 232.337 36.0036 232.236L35.9017 233.163C39.1907 233.444 42.9404 234.234 43.9503 237.77C44.1383 238.265 44.2936 238.776 44.4294 239.295Z" fill="#C7B583"/>
<path d="M60.0393 240.057C59.9544 240.397 59.8626 240.705 59.7584 241.032C58.8694 243.911 56.9265 246.125 54.4054 246.567C51.8869 247.066 49.0607 246.114 46.4725 244.607C46.1793 244.435 45.8982 244.266 45.6055 244.077C45.8059 244.362 46.0046 244.628 46.2258 244.896C48.1327 247.24 51.2956 249.19 54.7962 248.529C58.4025 247.912 60.4034 244.096 60.135 241.083C60.1218 240.729 60.0875 240.404 60.0393 240.057Z" fill="#BDAF63"/>
<path d="M43.2171 237.555C43.2089 237.848 43.1888 238.12 43.1623 238.405C42.9286 240.927 41.8521 242.998 40.1693 244.34C38.4933 245.691 36.233 246.401 33.7181 246.282C33.4363 246.268 33.1584 246.246 32.8703 246.211C33.1123 246.371 33.3573 246.516 33.6191 246.649C35.9242 247.871 39.1796 247.741 41.4256 245.896C43.7381 244.103 44.4441 240.801 43.5397 238.361C43.4457 238.078 43.3396 237.822 43.2171 237.555Z" fill="#BDAF63"/>
<path d="M38.6166 223.525C38.7559 223.296 38.8953 223.083 39.0453 222.865C40.3621 220.952 42.2084 219.362 44.3353 219.104C46.4663 218.809 48.5258 220.163 49.9813 221.975C50.1494 222.181 50.3047 222.378 50.4652 222.597C50.3629 222.346 50.261 222.114 50.1409 221.872C49.1649 219.771 46.9004 217.751 44.2163 218.111C41.5808 218.445 39.7232 220.594 38.8776 222.775C38.7785 223.026 38.6951 223.269 38.6166 223.525Z" fill="#FFF9D8"/>
<path d="M29.0164 228.918C28.9181 228.668 28.8684 228.39 28.8499 228.128C28.8125 225.733 29.9286 223.317 31.6758 221.989C33.4759 220.588 36.0352 221.571 37.9579 223.024C38.1723 223.178 38.3919 223.345 38.6166 223.525C38.4394 223.298 38.2624 223.084 38.0856 222.883C36.6068 221.068 33.5275 219.35 31.0966 221.174C28.9192 222.848 28.0811 225.692 28.6631 228.163C28.7429 228.427 28.8591 228.699 29.0164 228.918Z" fill="#FFF9D8"/>
<path d="M146.941 219.001C147.079 218.994 147.225 218.987 147.377 218.981M147.377 218.981C147.586 218.973 147.807 218.966 148.033 218.96M147.377 218.981C147.203 219.027 147.011 219.1 146.8 219.201C146.503 219.518 146.26 220.094 146.407 220.67C146.468 220.908 146.565 221.089 146.847 221.145C148.622 221.5 150.402 221.581 150.872 221.081C151.189 220.744 151.435 220.055 151.326 219.295C151.278 218.966 149.537 218.924 148.033 218.96M147.377 218.981C147.615 218.919 147.819 218.906 147.991 218.94C148.005 218.946 148.019 218.953 148.033 218.96M148.033 218.96C148.156 219.024 148.273 219.13 148.489 219.239M148.727 219.596H148.846M150.155 219.715L150.513 219.834M149.084 220.548C148.927 220.469 148.728 220.39 148.491 220.291C148.371 220.231 148.253 220.153 148.134 220.093C148.014 220.033 147.896 219.993 147.894 219.953M181.237 225.893V225.484M181.252 225.983C181.252 225.96 181.247 225.926 181.242 225.881M181.242 225.881C181.238 225.836 181.234 225.78 181.238 225.712M181.242 225.881C181.25 225.879 181.258 225.875 181.266 225.872C181.766 225.665 182.155 225.558 182.314 225.286C182.35 225.224 182.35 225.128 182.288 225.079C182.225 225.031 182.095 225.012 182.007 225.068C181.837 225.178 181.275 225.252 181.24 225.691C181.239 225.698 181.238 225.705 181.238 225.712M181.242 225.881C181.125 225.922 181.017 225.908 180.998 225.876M181.238 225.712C181.16 225.768 181.077 225.825 180.998 225.876M181.238 225.712C181.289 225.675 181.338 225.639 181.383 225.607C181.568 225.471 181.665 225.399 181.837 225.324M180.998 225.876L180.997 225.873C180.948 225.746 181.227 225.617 181.312 225.459C181.357 225.377 181.373 225.277 181.277 225.239C180.519 224.943 179.596 225.713 179.276 225.897C178.849 226.141 180.519 226.031 180.762 226.008C180.829 225.979 180.912 225.932 180.998 225.876ZM122.266 224.158C122.12 224.158 121.898 223.939 121.604 223.716C121.485 223.626 121.309 223.932 121.343 224.118C121.505 224.997 123.293 224.823 124.585 224.677C125.091 224.62 125.22 224.238 125.258 223.941C125.297 223.644 125.224 223.351 124.857 223.2C124.49 223.05 123.832 223.05 123.383 223.086C122.934 223.123 122.714 223.196 122.932 223.715M99.8742 241.673C99.8742 241.678 99.874 241.683 99.8736 241.689M99.8736 241.689C99.8633 241.84 99.7133 242.125 99.3233 242.41C98.8195 242.778 98.1028 242.265 97.697 242.008C97.4759 241.867 97.3645 241.531 97.3988 241.344C97.4645 240.986 98.0983 240.788 98.5406 240.492C98.7364 240.361 98.9829 240.489 99.1692 240.636C99.5139 240.909 99.6852 241.338 99.8736 241.689ZM99.8736 241.689C99.8974 241.733 99.9215 241.777 99.9462 241.818C100.094 241.968 100.313 242.041 100.353 241.969C100.393 241.897 100.247 241.677 100.096 241.451M93.8881 213.516C93.8881 213.589 93.8881 213.663 93.7784 213.737C93.6687 213.811 93.4492 213.884 93.2995 213.812C93.1499 213.74 93.0767 213.521 93.1122 213.298C93.1477 213.075 93.294 212.855 93.5157 212.706C93.7374 212.556 94.03 212.483 94.2174 212.555C94.4047 212.627 94.4779 212.847 94.3316 213.294M126.479 209.969C126.771 209.969 127.215 209.969 127.731 210.115C127.989 210.188 128.102 210.554 128.067 210.778C128.033 211.002 127.814 211.148 127.664 211.114C127.514 211.08 127.441 210.86 127.294 210.71C127.146 210.561 126.927 210.488 126.479 210.412M167.494 216.398C167.494 216.545 167.714 216.693 167.937 216.804C167.94 216.842 167.72 216.842 167.461 216.695C167.202 216.549 166.909 216.256 166.164 215.733M215.161 227.262C215.161 227.408 214.942 227.776 214.499 228.293C214.276 228.517 214.057 228.663 213.944 228.592C213.831 228.521 213.831 228.229 213.831 227.927M193.877 246.55C193.877 246.383 193.896 246.202 193.935 246.011M193.935 246.011C194.053 245.442 194.356 244.779 194.909 244.115C195.226 243.734 195.208 243.227 195.317 242.858C195.37 242.68 195.646 242.635 195.869 242.67C196.092 242.706 196.312 242.852 196.425 243.074C196.931 244.066 195.726 245.216 195.467 246.692C195.402 247.061 195.429 247.357 195.283 247.398C195.137 247.439 194.844 247.22 194.51 246.814C194.327 246.591 194.134 246.315 193.935 246.011ZM193.935 246.011C193.772 245.761 193.604 245.492 193.434 245.22M173.259 241.451C172.755 241.423 172.088 241.363 171.438 241.281M171.438 241.281C170.385 241.148 169.379 240.957 169.196 240.752C169.063 240.602 169.193 240.347 169.413 240.197C169.932 239.845 171.181 239.899 172.401 240.192C172.894 240.31 172.815 241.07 172.669 241.261C172.402 241.611 171.709 240.861 171.376 240.749C171.263 240.784 171.263 241.003 171.373 241.189C171.391 241.22 171.412 241.25 171.438 241.281ZM171.438 241.281C171.568 241.436 171.813 241.62 172.372 242.116M1.40096 246.26C1.40096 246.127 1.40096 245.995 1.46709 246.125C1.53322 246.255 1.66548 246.652 1.00018 247.863M47.4905 257.481L47.0897 257.081M98.3894 260.688C98.5216 260.952 98.6539 261.217 98.722 261.683C98.7902 262.15 98.7902 262.812 98.7902 263.493M71.1364 228.224C71.0042 228.224 70.8719 228.224 71.0022 228.291C71.1324 228.357 71.5292 228.489 71.938 228.625M197.349 231.645H197.594M159.346 230.909V231.645M214.266 204.43C214.186 204.349 214.105 204.268 214.063 204.348C214.021 204.427 214.021 204.67 214.021 204.92M194.162 216.443C194.081 216.443 194 216.443 193.958 216.322C193.917 216.201 193.917 215.958 193.917 215.708" stroke="#FFF9D8" stroke-width="2" stroke-linecap="round"/>
</svg>
