<svg width="41" height="32" viewBox="0 0 41 32" fill="none" xmlns="http://www.w3.org/2000/svg">
<g clip-path="url(#clip0_4_6)">
<path d="M15.8426 4.95204C0.242552 -7.04796 -4.65744 14.952 4.84256 16.952C-2.13933 23.5376 5.34254 29.952 13.8425 27.452C15.3425 32.452 24.4489 32.9031 25.3426 24.452C35.3425 32.452 36.3425 16.952 33.3426 16.952C43.3425 15.952 42.161 4.24853 33.3426 5.95204C28.8425 -1.54796 19.8425 -2.04796 15.8426 4.95204Z" fill="#FFED86"/>
<path d="M11.3425 16.952C15.2709 15.0729 17.3425 13.452 16.8425 10.452C19.3425 14.952 20.4662 15.2042 26.3425 14.952C22.1081 15.4742 20.1677 16.0949 20.3425 19.952C18.933 16.0775 17.2314 15.0752 11.3425 16.952Z" fill="#6C5736"/>
<path d="M16.3425 9.95204C16.3537 10.1192 16.3567 10.2931 16.351 10.4568C16.2928 11.9625 15.7352 13.2974 14.8369 14.3213C13.936 15.3549 12.6916 16.11 11.3085 16.7448C11.1586 16.8143 11.0034 16.8835 10.8425 16.952C11.0174 16.9487 11.1885 16.9409 11.3558 16.9288C12.8846 16.8159 14.4925 16.2359 15.5904 14.9787C16.6977 13.7413 17.0435 11.9078 16.5389 10.4285C16.4843 10.2673 16.418 10.1017 16.3425 9.95204Z" fill="#C7B583"/>
<path d="M16.8425 9.95204C17.0056 10.4634 17.1912 10.967 17.4146 11.4575C18.0834 13.0223 19.4019 14.4894 21.1586 14.9859C22.8831 15.5122 24.65 15.4701 26.3679 15.4176L26.3049 14.4873C24.9021 14.592 23.4812 14.7112 22.078 15.285C21.2384 15.6224 20.3747 16.3391 20.0717 17.2906C19.7565 18.2233 19.8119 19.1313 19.8938 19.9903L20.7652 19.7965C20.2012 18.3504 19.3202 16.6566 17.6198 16.1236C15.9731 15.6265 14.3717 16.0442 12.8711 16.4559C12.358 16.6055 11.8511 16.7725 11.3425 16.952C11.8693 16.8367 12.3913 16.7312 12.9139 16.641C14.4347 16.3924 16.0538 16.1784 17.4026 16.716C18.7555 17.2517 19.4267 18.6879 19.9199 20.1076L20.7913 19.9138C20.6434 18.2687 20.9628 16.7297 22.4726 16.2039C23.6406 15.7197 25.0231 15.5574 26.3802 15.4168L26.3172 14.4865C23.0301 14.789 19.1999 14.6721 17.5829 11.3692C17.3105 10.9146 17.0677 10.4392 16.8425 9.95204Z" fill="#C7B583"/>
<path d="M1.34254 11.952C1.36628 11.6024 1.40235 11.283 1.44739 10.9428C1.81527 7.95216 3.33777 5.43043 5.74161 4.55108C8.13281 3.61612 11.0825 4.05541 13.8958 5.08357C14.2146 5.20078 14.5211 5.31803 14.8425 5.45204C14.5951 5.20707 14.3526 4.98032 14.0877 4.75561C11.7977 2.78404 8.3408 1.42173 5.01132 2.68918C1.57003 3.93108 0.27262 8.03988 1.06774 10.9593C1.14308 11.3054 1.23397 11.6189 1.34254 11.952Z" fill="#FFF9D8"/>
<path d="M18.9759 6.95204C18.8963 6.74689 18.8396 6.55167 18.8007 6.35713C18.4726 4.50257 20.18 4.13777 21.6602 3.5549C23.2173 3.04145 24.9022 2.61547 26.7266 2.16762C26.9298 2.1185 27.1337 2.0694 27.3425 2.02078C27.3425 2.02078 27.3425 2.02078 27.3425 2.02078C27.1453 1.93657 26.9481 1.8591 26.7471 1.78817C24.9391 1.15564 22.9324 1.02989 21.0227 1.65922C20.0822 1.98252 19.1244 2.48853 18.4186 3.39815C17.6393 4.27082 17.679 5.88978 18.4679 6.54052C18.6246 6.69999 18.7925 6.83041 18.9759 6.95204Z" fill="#FFF9D8"/>
<path d="M3.59077 21.5672C3.65945 21.4128 3.72813 21.2645 3.79669 21.1222C4.42243 19.8146 5.14866 18.564 6.21191 17.9688C7.25825 17.3599 8.68063 17.5283 10.0317 18.035C10.1831 18.0915 10.3344 18.1524 10.4842 18.2168C10.4842 18.2168 10.4842 18.2168 10.4842 18.2168C10.3727 18.0978 10.2541 17.9825 10.13 17.8724C9.06643 16.9 7.26948 16.2243 5.72356 17.0962C4.22094 17.974 3.72827 19.631 3.61296 21.0737C3.60179 21.2338 3.59439 21.3982 3.59077 21.5672Z" fill="#FFF9D8"/>
<path d="M24.8745 19.8097C24.8745 19.8097 24.8745 19.8097 24.8745 19.8097C24.8717 19.6456 24.8808 19.4884 24.8999 19.332C25.0881 17.9253 26.0328 16.9052 27.1069 16.2382C28.1902 15.5845 29.5279 15.2676 30.8342 15.8528C30.98 15.9185 31.1175 15.9889 31.2597 16.0746C31.1627 15.9399 31.0619 15.8172 30.9432 15.6972C29.8943 14.5664 27.9039 14.5334 26.5879 15.3835C25.2423 16.1761 24.3141 17.8523 24.7103 19.3453C24.7518 19.5072 24.8066 19.6603 24.8745 19.8097Z" fill="#FFF9D8"/>
<path d="M32.8426 6.95203C32.6938 6.95992 32.5564 6.96817 32.4088 6.98381C31.1902 7.09571 29.5392 7.62388 29.1462 9.23549C28.8364 10.737 29.4598 11.9844 30.1081 13.0876C30.1834 13.2096 30.2607 13.3288 30.3425 13.452C30.3232 13.3054 30.3055 13.165 30.2871 13.0239C30.1332 11.7572 29.8829 10.483 30.1171 9.47511C30.3143 8.48877 31.3571 7.79892 32.4667 7.16478C32.5938 7.09267 32.7121 7.02401 32.8426 6.95203Z" fill="#FFF9D8"/>
<path d="M25.3425 24.452C25.2457 24.7016 25.146 24.936 25.0368 25.1773C24.0774 27.2918 22.5401 29.1821 20.492 29.8113C18.4462 30.4765 16.1804 29.5069 14.4284 27.9791C14.2269 27.8068 14.0391 27.6395 13.8425 27.452C13.9876 27.6817 14.1288 27.8922 14.2895 28.1087C15.6204 30.0057 18.2054 31.595 20.784 30.7678C23.3194 29.9742 24.7695 27.532 25.2176 25.2356C25.2711 24.9717 25.3104 24.7178 25.3425 24.452Z" fill="black" fill-opacity="0.26"/>
<path d="M33.8425 17.452C33.9834 17.6812 34.0813 17.9459 34.1456 18.2C34.6044 20.5514 33.9313 23.1261 32.4453 24.7409C30.9201 26.4376 28.2276 25.9201 26.0792 24.8294C25.841 24.7153 25.5954 24.5897 25.3425 24.452C25.5569 24.6442 25.7688 24.8235 25.9782 24.9904C27.7537 26.5168 31.0874 27.6647 33.159 25.4413C35.0075 23.4102 35.3315 20.4626 34.3232 18.1326C34.1982 17.8868 34.0359 17.6396 33.8425 17.452Z" fill="black" fill-opacity="0.26"/>
</g>
<defs>
<clipPath id="clip0_4_6">
<rect width="40.4064" height="31.042" fill="white"/>
</clipPath>
</defs>
</svg>
