<svg width="41" height="32" viewBox="0 0 41 32" fill="none" xmlns="http://www.w3.org/2000/svg">
<g clip-path="url(#clip0_4_6)">
<path d="M15.8426 4.95204C0.242552 -7.04796 -4.65744 14.952 4.84256 16.952C-2.13933 23.5376 5.34254 29.952 13.8425 27.452C15.3425 32.452 24.4489 32.9031 25.3426 24.452C35.3425 32.452 36.3425 16.952 33.3426 16.952C43.3425 15.952 42.161 4.24853 33.3426 5.95204C28.8425 -1.54796 19.8425 -2.04796 15.8426 4.95204Z" fill="#FFED86"/>
<path d="M1.34254 11.952C1.36628 11.6024 1.40235 11.283 1.44739 10.9428C1.81527 7.95216 3.33777 5.43043 5.74161 4.55108C8.13281 3.61612 11.0825 4.05541 13.8958 5.08357C14.2146 5.20078 14.5211 5.31803 14.8425 5.45204C14.5951 5.20707 14.3526 4.98032 14.0877 4.75561C11.7977 2.78404 8.3408 1.42173 5.01132 2.68918C1.57003 3.93108 0.27262 8.03988 1.06774 10.9593C1.14308 11.3054 1.23397 11.6189 1.34254 11.952Z" fill="#FFF9D8"/>
<path d="M18.9759 6.95204C18.8963 6.74689 18.8396 6.55167 18.8007 6.35713C18.4726 4.50257 20.18 4.13777 21.6602 3.5549C23.2173 3.04145 24.9022 2.61547 26.7266 2.16762C26.9298 2.1185 27.1337 2.0694 27.3425 2.02078C27.3425 2.02078 27.3425 2.02078 27.3425 2.02078C27.1453 1.93657 26.9481 1.8591 26.7471 1.78817C24.9391 1.15564 22.9324 1.02989 21.0227 1.65922C20.0822 1.98252 19.1244 2.48853 18.4186 3.39815C17.6393 4.27082 17.679 5.88978 18.4679 6.54052C18.6246 6.69999 18.7925 6.83041 18.9759 6.95204Z" fill="#FFF9D8"/>
<path d="M3.59077 21.5672C3.65945 21.4128 3.72813 21.2645 3.79669 21.1222C4.42243 19.8146 5.14866 18.564 6.21191 17.9688C7.25825 17.3599 8.68063 17.5283 10.0317 18.035C10.1831 18.0915 10.3344 18.1524 10.4842 18.2168C10.4842 18.2168 10.4842 18.2168 10.4842 18.2168C10.3727 18.0978 10.2541 17.9825 10.13 17.8724C9.06643 16.9 7.26948 16.2243 5.72356 17.0962C4.22094 17.974 3.72827 19.631 3.61296 21.0737C3.60179 21.2338 3.59439 21.3982 3.59077 21.5672Z" fill="#FFF9D8"/>
<path d="M25.3425 24.452C25.2457 24.7016 25.146 24.936 25.0368 25.1773C24.0774 27.2918 22.5401 29.1821 20.492 29.8113C18.4462 30.4765 16.1804 29.5069 14.4284 27.9791C14.2269 27.8068 14.0391 27.6395 13.8425 27.452C13.9876 27.6817 14.1288 27.8922 14.2895 28.1087C15.6204 30.0057 18.2054 31.595 20.784 30.7678C23.3194 29.9742 24.7695 27.532 25.2176 25.2356C25.2711 24.9717 25.3104 24.7178 25.3425 24.452Z" fill="black" fill-opacity="0.26"/>
<path d="M33.8425 17.452C33.9834 17.6812 34.0813 17.9459 34.1456 18.2C34.6044 20.5514 33.9313 23.1261 32.4453 24.7409C30.9201 26.4376 28.2276 25.9201 26.0792 24.8294C25.841 24.7153 25.5954 24.5897 25.3425 24.452C25.5569 24.6442 25.7688 24.8235 25.9782 24.9904C27.7537 26.5168 31.0874 27.6647 33.159 25.4413C35.0075 23.4102 35.3315 20.4626 34.3232 18.1326C34.1982 17.8868 34.0359 17.6396 33.8425 17.452Z" fill="black" fill-opacity="0.26"/>
</g>
<defs>
<clipPath id="clip0_4_6">
<rect width="40.4064" height="31.042" fill="white"/>
</clipPath>
</defs>
</svg>
