<svg width="41" height="32" viewBox="0 0 41 32" fill="none" xmlns="http://www.w3.org/2000/svg">
<g clip-path="url(#clip0_4_7)">
<path d="M22.6339 26.6928C35.8761 41.2531 44.5749 20.4603 35.5757 16.8181C43.6085 11.5654 37.3736 3.93334 28.5661 4.89694C27.9703 -0.289108 19.0858 -2.33727 16.7175 5.82426C8.28307 -3.81218 4.56833 11.2693 7.52141 11.7977C-2.49836 11.0206 -3.3969 22.7492 5.58372 22.6257C8.69221 30.8012 17.4634 32.8787 22.6339 26.6928Z" fill="#FFED86"/>
<path d="M38.1403 22.3565C38.0553 22.6965 37.9635 23.0045 37.8593 23.3314C36.9703 26.2105 35.0274 28.4246 32.5063 28.8668C29.9878 29.3659 27.1616 28.4139 24.5734 26.9063C24.2802 26.7347 23.9991 26.5653 23.7064 26.3768C23.9068 26.6615 24.1055 26.9274 24.3267 27.1953C26.2336 29.5394 29.3965 31.4894 32.8972 30.8282C36.5034 30.2119 38.5043 26.3959 38.2359 23.3821C38.2227 23.0282 38.1884 22.7036 38.1403 22.3565Z" fill="#BDAF63"/>
<path d="M21.318 19.8541C21.3098 20.1479 21.2897 20.4191 21.2632 20.7046C21.0295 23.2266 19.953 25.2976 18.2702 26.6397C16.5942 27.9907 14.3339 28.7009 11.819 28.5812C11.5372 28.5672 11.2593 28.5451 10.9712 28.5101C11.2132 28.6702 11.4582 28.8151 11.72 28.9481C14.0252 30.1706 17.2805 30.0403 19.5265 28.1959C21.839 26.4025 22.545 23.1006 21.6406 20.66C21.5466 20.3774 21.4405 20.1213 21.318 19.8541Z" fill="#BDAF63"/>
<path d="M16.7175 5.82426C16.8568 5.59564 16.9962 5.38248 17.1462 5.1642C18.463 3.25178 20.3093 1.66178 22.4362 1.4032C24.5672 1.10882 26.6268 2.46243 28.0822 4.27489C28.2503 4.48002 28.4056 4.67781 28.5661 4.89693C28.4638 4.64532 28.3619 4.4132 28.2419 4.17181C27.2658 2.07004 25.0013 0.050241 22.3172 0.410304C19.6817 0.744806 17.8241 2.89341 16.9785 5.07495C16.8794 5.32533 16.796 5.56831 16.7175 5.82426Z" fill="#FFF9D8"/>
<path d="M7.11731 11.2175C7.01905 10.9671 6.96931 10.6893 6.95076 10.4278C6.91336 8.03235 8.02949 5.61651 9.7767 4.2887C11.5768 2.88725 14.1361 3.87095 16.0588 5.32301C16.2732 5.47732 16.4928 5.6442 16.7175 5.82426C16.5403 5.59736 16.3633 5.38353 16.1865 5.18239C14.7077 3.3671 11.6284 1.64987 9.19746 3.47355C7.02013 5.14732 6.182 7.99177 6.76403 10.4629C6.84378 10.7269 6.96 10.9988 7.11731 11.2175Z" fill="#FFF9D8"/>
</g>
<defs>
<clipPath id="clip0_4_7">
<rect width="40.4064" height="31.042" fill="white"/>
</clipPath>
</defs>
</svg>
