<?xml version="1.0" ?>

<!-- Uploaded to: SVG Repo, www.svgrepo.com, Generator: SVG Repo Mixer Tools -->
<svg fill="#5f0202" width="800px" height="800px" viewBox="0 0 64 64" xmlns="http://www.w3.org/2000/svg">

<!-- change: gradient background -->
<defs>
    <linearGradient id="gradient1" x1="0%" y1="0%" x2="50%" y2="100%">
    <stop offset="0%" stop-color="#b65353"/>
    <stop offset="100%" stop-color="#880404"/>
    </linearGradient>
</defs>
<rect width="64" height="64" fill="url(#gradient1)"/>

<g id="lady">

<path d="M6.7,14.4561a1,1,0,0,0-1.4141,0l-.7671.767-.767-.767A1,1,0,0,0,2.3379,15.87l.7671.7671-.7671.7671A1,1,0,1,0,3.752,18.8184l.767-.7671.7671.7671A1,1,0,1,0,6.7,17.4043l-.7671-.7671L6.7,15.87A1,1,0,0,0,6.7,14.4561Z"/>

<path d="M56,54a3,3,0,1,0,3,3A3.0033,3.0033,0,0,0,56,54Zm0,4a1,1,0,1,1,1-1A1.0009,1.0009,0,0,1,56,58Z"/>

<circle cx="59" cy="46" r="1"/>

<path d="M32,10A24,24,0,1,0,56,34,24.0275,24.0275,0,0,0,32,10Zm0,46A22,22,0,1,1,54,34,22.0248,22.0248,0,0,1,32,56Z"/>

<path d="M41.458,41.9985c-.0137-.0078-1.4228-.7915-3.6309-4.0669-.9619-1.4257-2.0244-2.0678-3.1738-1.9087A4.06,4.06,0,0,0,32,38.2065a4.06,4.06,0,0,0-2.6533-2.1836c-1.1455-.1586-2.2119.483-3.1738,1.9087-2.2071,3.274-3.6153,4.0586-3.6143,4.0581a1,1,0,0,0-.1455,1.7071L27.1777,47.15a7.5725,7.5725,0,0,0,9.5469.0347L41.583,43.7a1.0026,1.0026,0,0,0,.4072-.8809A1.0168,1.0168,0,0,0,41.458,41.9985Zm-5.9121,3.5708a5.625,5.625,0,0,1-7.1816-.0293l-2.28-1.6528h2.6944a5.331,5.331,0,0,0,.83-.083c.6094-.0952.6318-.064.7373.0654a1.9638,1.9638,0,0,0,3.2227,0c.1035-.1294.1269-.1606.7363-.0654a5.331,5.331,0,0,0,.83.083h2.7558Z"/>

<path d="M47.707,26.293a.9994.9994,0,0,0-1.414,0l-1.2559,1.2558c-3.61-3.37-10.0215-1.5932-10.3115-1.51a1,1,0,1,0,.5488,1.9228c.0645-.0176,6.3682-1.771,8.9258,1.6387a.9985.9985,0,0,0,.7285.3975c.0244.0014.0479.0024.0713.0024a.9984.9984,0,0,0,.707-.293l2-2A.9994.9994,0,0,0,47.707,26.293Z"/>

<path d="M28.7266,27.9619a1,1,0,0,0,.5478-1.9233c-.289-.083-6.7012-1.8594-10.3115,1.51L17.707,26.293a1,1,0,0,0-1.414,1.414l2,2A.9984.9984,0,0,0,19,30c.0234,0,.0469-.001.0713-.0024A.9985.9985,0,0,0,19.8,29.6C22.3477,26.2036,28.6641,27.9443,28.7266,27.9619Z"/>

</g>

</svg>